<svg width="42" height="20" viewBox="0 0 42 20" fill="none" xmlns="http://www.w3.org/2000/svg">
<path d="M12.8399 11.9807C12.732 11.8243 12.6142 11.6511 12.5301 11.5244C12.5234 11.5144 12.515 11.506 12.5055 11.4999C12.496 11.4938 12.4856 11.49 12.4749 11.4888C12.0563 11.4393 11.0347 11.3156 10.3211 11.2295C10.31 11.2283 10.2987 11.2298 10.2881 11.234C10.2774 11.2382 10.2676 11.2449 10.2592 11.2538C10.2508 11.2627 10.244 11.2736 10.2392 11.2857C10.2344 11.2979 10.2317 11.3111 10.2313 11.3245C10.2247 11.5343 10.2297 11.756 10.2371 11.8867C9.9649 12.1381 9.72237 12.4327 9.51616 12.7625C9.4442 12.8719 9.39935 13.0034 9.38672 13.1419C9.37409 13.2805 9.39421 13.4205 9.44477 13.546C9.49532 13.6715 9.57427 13.7773 9.67258 13.8514C9.77089 13.9255 9.88458 13.9648 10.0006 13.9649H11.2934C11.3972 13.965 11.4996 13.9373 11.5934 13.8839C11.6872 13.8305 11.7699 13.7527 11.8355 13.6561L12.8416 12.1054C12.8531 12.0874 12.8593 12.0653 12.859 12.0427C12.8587 12.02 12.8519 11.9981 12.8399 11.9807ZM40.1327 6.92951C39.0278 5.69542 37.352 4.59295 35.0079 3.55679C30.5636 1.59334 20.0221 0.0673007 19.5756 0.0029737C19.5309 -0.00314983 19.4858 0.000200596 19.4421 0.0128708L15.7846 1.11138H10.4283C9.38762 1.11138 7.63594 1.58443 7.15723 2.84128C5.82328 3.69732 4.24051 4.7315 3.82442 5.00366C3.39515 4.95022 1.98787 4.85026 0.751145 5.61328C0.544519 5.74071 0.373159 5.93749 0.257894 6.1797C0.142629 6.42191 0.0884228 6.69912 0.101863 6.97764C0.115303 7.25616 0.195811 7.524 0.333601 7.74859C0.471392 7.97318 0.660531 8.14487 0.878031 8.24277C0.886643 8.24699 0.895445 8.25062 0.904397 8.25366C1.05023 8.30413 4.48522 9.50061 5.71288 9.69656C6.07211 9.75396 6.46101 9.82027 6.88286 9.89152C7.631 10.0182 8.46399 10.1587 9.39669 10.2983C9.39647 10.2983 9.39626 10.2982 9.3961 10.298C9.39595 10.2978 9.39586 10.2975 9.39586 10.2973L12.872 10.7268C12.872 10.7268 13.6136 11.8688 13.7273 12.0193C13.5331 12.292 13.3788 12.6021 13.2708 12.9367C13.2316 13.0495 13.2162 13.1721 13.226 13.2938C13.2357 13.4155 13.2703 13.5324 13.3267 13.6341C13.3832 13.7359 13.4596 13.8193 13.5493 13.877C13.639 13.9347 13.7392 13.9649 13.841 13.9649H15.1824C15.2875 13.9652 15.3913 13.937 15.486 13.8823C15.5807 13.8276 15.664 13.748 15.7294 13.6492L16.7223 12.1608C16.8165 12.0197 16.8703 11.8458 16.8755 11.665C16.8792 11.5326 16.8796 11.3403 16.8673 11.0981C16.8667 11.0845 16.8684 11.0709 16.8723 11.0581C16.8762 11.0454 16.8823 11.0337 16.8902 11.0239C16.898 11.0141 16.9075 11.0064 16.918 11.0011C16.9284 10.9959 16.9397 10.9934 16.951 10.9936C17.9088 11.0171 21.6218 11.0005 22.8839 10.9441C22.9032 10.9431 22.9221 10.9503 22.9374 10.9644C22.9527 10.9785 22.9635 10.9986 22.9677 11.0212C23.0123 11.2358 23.0241 11.4584 23.0026 11.6781C22.5995 11.9546 22.257 12.3424 22.0032 12.8093C21.9408 12.921 21.9048 13.051 21.8991 13.1854C21.8935 13.3198 21.9183 13.4536 21.9711 13.5723C22.0238 13.691 22.1024 13.7903 22.1985 13.8595C22.2945 13.9287 22.4045 13.9653 22.5165 13.9652H24.3626C24.4888 13.9653 24.6127 13.9243 24.721 13.8464C25.0424 13.5199 25.8628 12.6943 26.0195 12.5366C26.0367 12.5192 26.0508 12.4975 26.0607 12.4731L26.897 10.4408L27.0412 10.4249C27.2835 10.3982 27.7328 10.3529 28.3035 10.3319C30.1549 10.2639 33.6492 9.72328 34.937 9.48181C35.4618 9.38284 36.28 9.80641 36.7241 10.4061C36.8601 10.5902 37.0768 10.9524 36.9952 11.3067C36.6953 12.6012 35.3218 13.8056 33.1276 14.6992C30.4185 15.8027 21.9526 16.1807 18.4385 16.2916C18.2385 16.298 18.0465 16.3873 17.895 16.5444C17.7435 16.7014 17.6418 16.9165 17.6072 17.1532C17.5726 17.3899 17.6072 17.6338 17.7051 17.8434C17.8029 18.053 17.9582 18.2156 18.1444 18.3035C19.6473 19.0121 22.2402 19.5 25.5211 19.5C28.2771 19.5 31.5193 19.1556 35.007 18.3085C39.6054 17.1921 41.6999 13.6373 41.6999 10.8069C41.6999 9.39571 41.1725 8.09136 40.1327 6.92951ZM8.06851 3.88932C8.15911 3.88932 8.24768 3.92159 8.32302 3.98205C8.39835 4.04251 8.45707 4.12845 8.49174 4.22899C8.52641 4.32954 8.53549 4.44017 8.51781 4.54691C8.50013 4.65364 8.4565 4.75169 8.39244 4.82864C8.32837 4.90559 8.24674 4.958 8.15788 4.97923C8.06901 5.00046 7.9769 4.98956 7.8932 4.94792C7.80949 4.90627 7.73794 4.83575 7.6876 4.74526C7.63727 4.65477 7.6104 4.54839 7.6104 4.43956C7.61042 4.29363 7.65869 4.15369 7.7446 4.05051C7.83051 3.94732 7.94701 3.88934 8.06851 3.88932ZM6.98586 9.00975C6.56318 8.9375 6.17181 8.87119 5.81093 8.8138C4.94744 8.67624 2.83158 7.9815 1.75799 7.61929C2.1164 7.66877 2.39489 7.67966 2.40231 7.67966C2.61818 7.67966 3.14715 7.69649 3.75933 7.71628C4.285 7.73211 4.8667 7.75091 5.41214 7.76477L5.87272 8.43575C5.8837 8.45169 5.89776 8.46416 5.91367 8.47208C5.92958 8.47999 5.94686 8.48311 5.96401 8.48116C5.98116 8.47921 5.99764 8.47224 6.01203 8.46088C6.02643 8.44951 6.03828 8.43409 6.04657 8.41596L6.3333 7.78259C6.49149 7.78358 6.63898 7.78456 6.77328 7.78456L7.14899 8.4219C7.15892 8.43883 7.17216 8.45257 7.18753 8.46194C7.20291 8.4713 7.21997 8.476 7.23721 8.4756C7.25444 8.47521 7.27134 8.46975 7.28641 8.4597C7.30149 8.44964 7.31428 8.43531 7.32367 8.41794L7.6862 7.74102C9.07865 7.62622 11.3107 7.45204 12.5491 9.80146C10.2824 9.56791 8.46811 9.26112 6.98586 9.00975ZM26.4562 13.0386C26.4294 13.165 26.4307 13.2977 26.4601 13.4233C26.4896 13.5488 26.546 13.6629 26.6238 13.7539C26.7457 13.8926 26.9079 13.9683 27.0757 13.9649H28.8432C28.9483 13.9653 29.0521 13.9371 29.1469 13.8825C29.2416 13.8278 29.3249 13.748 29.3903 13.6492L30.4976 11.9866C30.5639 11.8875 30.6106 11.7716 30.6342 11.6476C30.6577 11.5237 30.6575 11.3949 30.6336 11.2711L30.6011 10.9511C30.5987 10.926 30.5883 10.9029 30.572 10.8868C30.5558 10.8706 30.535 10.8626 30.514 10.8644C29.7657 10.9301 27.789 11.0592 27.3319 11.0932C27.3117 11.0946 27.2927 11.1049 27.2785 11.1222C27.2642 11.1394 27.2558 11.1624 27.2549 11.1867C27.2439 11.3594 27.2432 11.5328 27.253 11.7055C27.0537 11.8539 26.8807 12.048 26.744 12.2767C26.6073 12.5055 26.5095 12.7644 26.4562 13.0386Z" fill="black"/>
</svg>
