<svg width="46" height="20" viewBox="0 0 46 20" fill="none" xmlns="http://www.w3.org/2000/svg">
<path opacity="0.5" d="M22.9742 4.61818C22.9702 4.61818 22.9672 4.61818 22.9636 4.61768C23.2097 4.62886 23.2692 4.63141 22.9742 4.61818Z" fill="black"/>
<path d="M44.9492 12.4242C44.4211 12.2024 41.6518 10.7266 40.5166 10.6432C39.3813 10.5598 39.6496 10.8608 38.6268 10.275C37.6031 9.68913 37.6031 9.68913 37.6031 9.68913C37.6031 9.68913 38.0827 8.76915 38.2889 7.52673C38.4952 6.28433 38.6884 5.60337 38.6884 5.60337C38.6884 5.60337 40.5206 4.304 41.4743 4.8451C42.429 5.38672 42.4235 5.41113 42.9344 5.14261C43.4453 4.87409 42.9258 4.34316 42.9258 4.34316C42.9258 4.34316 43.3252 4.85578 43.5976 4.3101C43.7151 4.07413 44.0661 3.46538 43.3661 2.6939C42.4956 1.73476 43.0882 1.75001 42.6691 1.50082C42.249 1.25061 41.2418 0.621521 40.4596 0.483701C39.6607 0.34283 39.6718 0.446068 39.1282 0.310791C38.9587 0.510146 39.4318 1.03244 39.4318 1.03244C39.4318 1.03244 38.0095 0.981072 37.1456 1.44284C36.2827 1.90258 36.2928 2.00277 35.2766 2.46657C34.2603 2.9314 34.5165 2.47573 33.0943 2.98785C31.6721 3.49996 30.3245 4.80289 29.273 5.07904C27.7499 5.47877 21.8986 4.57302 22.9627 4.61727C22.2748 4.58625 20.1254 4.4881 20.1254 4.4881C16.9289 4.66914 15.7634 4.90715 11.9773 8.27127C8.19129 11.6354 6.71208 12.0377 4.02297 12.0921C1.33386 12.1475 2.45146 11.4223 1.35907 11.4009C0.267191 11.3796 0.859279 11.9944 0.867853 12.4547C0.876427 12.9164 2.39599 13.4092 4.1783 13.4092C5.96112 13.4092 8.65931 12.6652 13.2256 8.94867C14.5943 7.83492 15.374 7.19363 15.7961 6.84069C15.6706 7.43825 14.7613 11.6445 13.8908 12.0692C12.9532 12.5279 11.4543 13.1183 10.3816 13.9127C9.3089 14.7081 8.66032 16.9549 8.57811 17.6247C8.4954 18.2939 8.77127 18.6271 9.11372 18.8493C9.45566 19.071 9.60292 19.3848 10.1158 19.3848C10.6287 19.3848 10.3463 18.9571 10.1703 18.7079C9.80869 18.1953 9.19895 17.6511 10.1955 16.3858C11.5865 14.6186 13.3542 14.8719 15.432 13.7306C17.5094 12.5905 20.3785 9.87272 20.3785 9.87272C20.3785 9.87272 21.9233 9.54978 23.2578 10.2145C24.5927 10.8797 25.6347 11.8124 27.6314 12.1607C29.6285 12.5076 34.8408 11.2687 34.8408 11.2687C34.8408 11.2687 35.6351 12.3316 37.0372 12.3982C38.4387 12.4648 39.5972 11.6812 40.2211 11.8037C40.8459 11.9258 43.2566 12.4298 43.8588 12.8015C44.4605 13.1728 44.2532 14.0343 45.6467 13.4092C45.8419 13.3202 45.4762 12.6449 44.9492 12.4242Z" fill="black"/>
<path opacity="0.5" d="M39.1282 0.00610227L39.1267 0C39.1267 0 39.1277 0.00254235 39.1282 0.00610227Z" fill="black"/>
<path d="M20.6259 10.3833C20.2245 10.7566 18.9157 11.9517 17.5202 12.9973C17.7683 13.603 17.961 14.1725 17.9645 14.4894C17.9756 15.3941 16.5312 17.5804 16.5418 18.2649C16.5524 18.9515 16.8444 19.2571 17.2151 19.604C17.5863 19.9508 17.9277 20.321 18.0326 19.5267C18.1375 18.7328 17.4708 19.0669 17.4688 18.594C17.4668 18.121 18.0694 17.0912 18.5511 16.4682C19.0327 15.8462 20.2391 14.7381 20.7656 13.7464C21.0838 13.1463 21.6235 11.5555 22.0002 10.3909C21.739 10.3512 21.4959 10.338 21.2941 10.338C21.0047 10.338 20.7671 10.3634 20.6259 10.3833Z" fill="black"/>
<path d="M39.2726 12.5375C38.8812 12.6636 38.4228 12.8116 37.9119 12.8899C38.3249 13.1732 38.6366 13.4402 38.6532 13.6131C38.7062 14.1486 38.8625 14.3352 38.6532 14.5458C38.4444 14.7563 38.335 14.7762 38.2155 14.9877C38.0954 15.1983 38.0586 15.8558 38.3693 15.9245C38.6795 15.9921 38.8948 15.8391 39.0032 15.6026C39.1112 15.3651 39.6599 13.49 39.6523 13.0252C39.6498 12.9042 39.5348 12.718 39.3608 12.5095C39.3316 12.5187 39.3023 12.5273 39.2726 12.5375Z" fill="black"/>
</svg>
