<svg width="41" height="36" viewBox="0 0 41 36" fill="none" xmlns="http://www.w3.org/2000/svg">
<path d="M13.6532 18.4883L16.3329 8.65615L23.195 4.20236H24.5891L31.5582 0.000335693V1.34483L25.0647 5.12655L33.3805 1.84906L36.3824 1.93333L34.3455 3.86597L25.8752 6.55496L35.6321 4.79051L39.2772 4.87443L36.0608 6.21892L27.3764 7.73161L36.3824 7.56377L40.3497 8.48795L36.3824 9.74853L28.2342 9.2443L34.7742 10.5891L36.597 12.1018L34.0238 12.3539L28.8775 10.8409L33.9163 13.2781L34.7742 14.8751L29.8425 15.1272L31.129 16.0435L31.5582 17.7323L29.9495 18.4883L30.4857 19.917L29.1992 20.5055L29.3062 21.514H27.001V22.6067H25.0647L25.7681 23.447L22.8738 23.111L25.7681 24.539L28.0201 25.7999L36.3824 26.3881L37.5619 27.5644L36.3824 28.2372L30.4857 26.8088L37.0257 28.9096L37.9906 29.8338H35.31L30.4857 28.2372L36.2754 30.4219L37.0257 31.4311L35.31 31.8503L26.5189 28.5736L23.8383 28.4054L25.6611 30.9261L23.9458 30.5062L25.0647 31.8503L19.1211 31.4311L16.9767 30.0859L16.655 28.5736L15.0463 25.1272L9.14967 22.0175L10.6563 22.0414L9.14967 20.9208L11.229 20.8091L9.79933 20.1927L11.1574 20.0245L9.94239 19.3521L11.5862 18.96L10.228 18.0072L13.6532 18.4883Z" fill="black"/>
<path d="M13.7 16.9858L6.39964 15.1261L5.44988 13.0003L3.94995 14.519V15.6573L8.34983 17.4793L13.3993 18.2003L13.7 16.9858Z" fill="black"/>
<path d="M20.2 32.6605L18.8235 33.4614V34.1905L19.0522 34.7365L17.9056 34.3357V33.3893L17.1598 34.2995L17.5612 35.1003L16.3 34.0808L17.6764 32.6605L18.6508 32.5003L20.2 32.6605Z" fill="black"/>
<path d="M16.95 32.5003L15.961 32.91L15.65 33.7638L16.3234 34.4503L15.961 33.7687L16.95 32.5003Z" fill="black"/>
<path d="M16.95 31.8496L15.5078 32.7496L15.2235 33.2784L14.7364 33.4204L15.3357 32.3897L14.3193 32.7569L14.0555 33.8L13.7102 33.2709L14.2995 32.1899L13.5273 32.7115L13.4465 33.5279L13.05 32.8248L13.9946 31.7288H15.7416L16.2803 31.2L16.95 31.8496Z" fill="black"/>
<path d="M1.07737 19.7986L1.92951 19.1133H3.30161L3.34958 18.7325L4.76966 18.2H9.00001L10.45 19.1515L8.17774 19.3803L10.2133 20.15L7.98858 20.4832L10.0716 21.0539H8.17774L9.50369 22.1H8.15511L2.90066 20.7876H1.55164L0.699951 21.187L1.07737 19.7986ZM4.58049 19.6047C4.77509 19.6047 4.93257 19.4778 4.93257 19.3218C4.93257 19.165 4.77463 19.0384 4.58049 19.0384C4.38545 19.0384 4.22751 19.1653 4.22751 19.3218C4.22751 19.4778 4.3859 19.6047 4.58049 19.6047Z" fill="black"/>
</svg>
