<svg width="37" height="31" viewBox="0 0 37 31" fill="none" xmlns="http://www.w3.org/2000/svg">
<path d="M19.3758 7.85579C19.3758 7.85579 20.9193 6.36728 22.3031 5.87111C22.3031 5.87111 19.0565 1.44694 12.1907 -0.000213623C12.1907 -0.000213623 9.84889 1.4056 9.42311 4.17587C9.42311 4.17587 7.61353 4.548 7.61353 5.49899L9.79567 6.32594C9.79567 6.32594 13.9471 5.70572 14.4793 5.82977C15.0115 5.95381 14.639 7.44231 14.1599 7.6904C14.1599 7.6904 14.3196 8.18657 14.639 8.3933C14.639 8.3933 13.5745 10.0885 10.8069 9.17891C10.8069 9.17891 12.3504 11.7424 8.4651 12.404C8.4651 12.404 6.22973 11.9078 5.91039 9.59238C5.91039 9.59238 8.51832 9.75777 8.78443 10.0472C8.78443 10.0472 9.36988 9.71642 7.24097 9.42699C7.24097 9.42699 6.92163 9.1789 8.09253 8.3933L7.29419 8.35196L7.0813 6.61537C7.0813 6.61537 2.18479 7.48366 0.960665 10.4193C0.960665 10.4193 -1.75371 16.4974 4.26048 29.6459C4.26048 29.6459 8.2522 30.2661 10.9134 29.5218C10.9134 29.5218 11.073 27.6198 10.7005 27.3718L8.9441 26.5862C8.9441 26.5862 12.4036 21.8726 11.3391 21.0043C11.3391 21.0043 10.3279 20.26 10.0618 19.8052C10.0618 19.8052 11.552 20.384 12.1375 20.384C12.1375 20.384 12.8294 18.234 14.1599 16.7041C14.1599 16.7041 10.9666 27.041 12.2971 29.8939C12.2971 29.8939 21.2386 31.8786 20.7596 28.943C20.7596 28.943 20.8128 27.8679 19.429 26.9583C19.429 26.9583 21.8773 24.8082 21.9837 24.5188C21.9837 24.5188 24.0062 23.6505 22.5159 20.0946C21.0257 16.5387 22.4627 20.0119 22.4627 20.0119C22.4627 20.0119 32.6283 12.7761 26.0819 7.07019C26.0819 7.07019 23.474 4.67204 19.3758 7.85579Z" fill="black"/>
<path d="M13.756 6.53307H12.3422H8.59023L7.61145 6.10986C7.61145 6.10986 8.04646 7.59107 8.26397 7.69688C8.26397 7.69688 9.46025 7.74978 10.1128 7.32657C10.1128 7.32657 11.3634 8.27878 11.7441 8.33168C11.7441 8.33168 13.5929 7.53817 13.756 6.53307Z" fill="black"/>
<path d="M9.81385 7.77567L9.37093 8.48261C9.37093 8.48261 9.00182 8.88658 9.81385 8.88658H10.4044V7.97765C10.4044 7.97765 10.1091 7.77567 9.9615 7.77567" fill="black"/>
<path d="M9.28723 7.77567L8.80844 8.33112L8.17004 8.26169C8.17004 8.26169 8.64884 7.81038 9.28723 7.77567Z" fill="black"/>
<path d="M28.5694 14.4601C28.5694 14.4601 26.19 18.3104 23.8107 19.9426L24.1808 22.3699C24.1808 22.3699 25.3969 22.1188 25.5026 22.2025C25.6084 22.2862 28.8866 27.392 28.8337 27.6849C28.8337 27.6849 27.7234 28.0616 27.7234 28.3545L27.6176 29.2334C27.6176 29.2334 33.4867 29.6937 35.1787 29.2334C35.1787 29.2334 36.9764 27.6431 35.5488 24.2113C35.5488 24.2113 33.0108 21.9514 32.9579 21.1981C32.9579 21.1981 32.4821 19.9007 33.2752 18.3104C33.3281 18.2267 34.5442 14.1253 28.5694 14.4601Z" fill="black"/>
<path d="M23.9318 23.4162C23.9318 23.4162 23.9887 24.7438 20.4591 26.8914C20.4591 26.8914 22.0531 28.4143 21.7116 28.8829L23.3056 28.7267C23.3056 28.7267 24.3872 26.3838 24.3872 26.1495C24.3872 26.1495 23.5902 25.6419 23.4764 25.3686C23.4764 25.3686 26.3228 24.1972 25.2412 23.4162C24.9565 23.2991 23.9318 23.2991 23.9318 23.4162Z" fill="black"/>
</svg>
