<svg width="38" height="28" viewBox="0 0 38 28" fill="none" xmlns="http://www.w3.org/2000/svg">
<path d="M34.9375 20.4969C36.4609 17.611 37.7 14.072 37.7 10.3002C37.7 8.40564 37.0959 6.25198 36.084 4.53931C35.1992 3.0417 33.5584 1.10683 30.7645 0.393469C27.2288 -0.509218 23.6465 0.332595 20.768 1.00909C19.7277 1.25354 18.7451 1.48443 17.9034 1.59862C16.016 1.85446 14.0219 1.81698 12.3077 1.75211H12.3065C12.0383 1.74193 11.7763 1.73115 11.5234 1.72071C10.4403 1.67593 7.9461 1.63297 7.9461 1.63297C7.80998 1.06614 7.49968 0.601748 7.11235 0.387382C6.94825 0.298074 6.76911 0.252803 6.58806 0.254895C6.40701 0.256987 6.22867 0.306387 6.06612 0.399469C5.53336 0.681146 5.27789 1.30703 5.39866 2.01361C4.54501 2.44286 3.71104 3.29729 3.20525 3.96917C2.77097 4.546 2.40271 5.45678 2.04644 6.33755C1.68369 7.23458 1.30865 8.16214 0.93331 8.53669C0.841431 8.62762 0.760175 8.73223 0.691626 8.84785C0.690434 8.84785 0.689242 8.84707 0.687975 8.84681C0.609489 8.82836 0.528566 8.82926 0.450397 8.84946C0.372227 8.86965 0.298536 8.9087 0.234049 8.96408C0.169562 9.01947 0.115704 9.08997 0.0759273 9.17108C0.0361508 9.25218 0.0113344 9.34209 0.00306964 9.43505C-0.00519513 9.528 0.00327415 9.62194 0.0279344 9.71085C0.0525946 9.79976 0.0929014 9.88168 0.14627 9.95134C0.199638 10.021 0.26489 10.0769 0.337841 10.1154C0.410792 10.1539 0.489831 10.1742 0.56989 10.1749C0.63766 10.4214 0.729188 10.658 0.842716 10.8804C1.59802 12.398 2.7928 13.3415 3.84693 14.1737C4.42805 14.6325 4.97683 15.066 5.40201 15.55C5.72099 15.9258 5.99845 16.3468 6.22794 16.803C6.23047 16.8088 6.23382 16.8138 6.23658 16.8194C6.66817 17.6624 7.01051 18.6908 7.07443 19.673C7.15526 20.914 7.34651 24.2647 7.40663 25.3232C7.19893 25.4003 7.0041 25.5184 6.83058 25.6723C6.70149 25.7863 6.60678 25.9452 6.56013 26.1261C6.51349 26.307 6.51733 26.5005 6.57109 26.6787C6.62213 26.8606 6.7214 27.0188 6.85453 27.1304C6.98766 27.2421 7.14777 27.3015 7.31172 27.3H10.8421C10.9558 27.3001 11.0682 27.2712 11.1713 27.2152C11.2744 27.1592 11.3658 27.0774 11.4389 26.9758C12.2197 25.8921 14.1672 23.0991 15.3997 20.565C20.171 20.5596 23.4295 20.3575 25.3303 19.9476C25.6134 22.0369 25.9873 24.4175 26.124 25.2761C26.006 25.3406 25.8944 25.4199 25.7912 25.5126C25.65 25.6397 25.5464 25.8152 25.495 26.0145C25.4435 26.2138 25.4467 26.4269 25.5042 26.624C25.5617 26.821 25.6706 26.9921 25.8156 27.1133C25.9606 27.2345 26.1344 27.2997 26.3128 27.2998H29.6218C29.8176 27.2996 30.0074 27.2211 30.1596 27.0774C31.2509 26.0441 33.2477 23.6838 34.9128 20.5441C34.922 20.5291 34.9303 20.5133 34.9375 20.4969ZM11.6176 10.5667C10.5502 13.1777 8.67138 15.2898 6.66996 16.1513C6.44016 15.7316 6.17213 15.3422 5.87055 14.9899C5.40238 14.4569 4.82946 14.0046 4.22287 13.5256C3.17984 12.7018 2.10098 11.8501 1.42271 10.4872C1.00982 9.65766 1.16404 9.33642 1.36922 9.1317C1.85393 8.64801 2.24208 7.6881 2.65311 6.67166C2.98941 5.83985 3.33719 4.97978 3.70918 4.48591C4.15932 3.88786 4.95984 3.06083 5.73451 2.69819C5.81061 2.66244 5.87903 2.60757 5.93492 2.53748C6.35839 3.25998 7.367 3.15345 7.62015 2.49556C7.63781 2.4483 7.65091 2.39889 7.65919 2.34825C8.72524 2.51009 10.4239 2.45826 11.4998 2.50296C11.6821 2.51052 11.8702 2.51817 12.0606 2.52565C12.8452 5.09744 12.6905 7.94238 11.6176 10.5667ZM32.1906 17.7354C31.5656 17.5998 28.4634 17.0522 25.8616 18.8322C25.7379 17.8505 25.6535 17.0342 25.6535 16.6352C25.6535 16.5314 25.6182 16.4319 25.5553 16.3585C25.4924 16.2851 25.4071 16.2439 25.3182 16.2439C25.2293 16.2439 25.144 16.2851 25.0812 16.3585C25.0183 16.4319 24.983 16.5314 24.983 16.6352C24.983 17.0986 25.0843 18.0535 25.2279 19.1739C23.6045 19.5279 20.9276 19.7249 17.0905 19.7717C17.8543 19.2302 18.4635 18.453 18.9083 17.4422C19.5278 16.0353 19.8016 14.2024 19.7001 12.1414C19.5858 9.8195 18.0572 6.69193 16.8289 4.17919C16.5444 3.59731 16.272 3.03996 16.0451 2.5467C16.6911 2.51583 17.3407 2.46278 17.9805 2.37599C18.8498 2.25824 19.8457 2.02413 20.9 1.77594C23.717 1.11388 27.2227 0.289896 30.6209 1.15771C35.2896 2.35016 37.0295 7.39834 37.0295 10.3002C37.0295 13.6402 36.0128 16.7965 34.7009 19.4482C34.3157 18.7759 33.513 18.0226 32.1906 17.7354Z" fill="black"/>
<path d="M4.48083 5.97698C2.92791 5.37649 2.02468 7.06293 3.01298 8.05331C3.55342 8.5946 4.06716 9.84885 5.24144 9.74482C7.10711 9.5799 6.93531 6.92507 4.48083 5.97698ZM3.77735 7.6087C3.68525 7.6087 3.59523 7.581 3.51866 7.52912C3.44209 7.47723 3.38241 7.40349 3.34716 7.31721C3.31192 7.23093 3.3027 7.13599 3.32067 7.04439C3.33863 6.9528 3.38298 6.86866 3.4481 6.80262C3.51322 6.73659 3.59619 6.69162 3.68651 6.6734C3.77683 6.65518 3.87045 6.66453 3.95553 6.70027C4.04062 6.73601 4.11334 6.79653 4.1645 6.87418C4.21566 6.95183 4.24297 7.04312 4.24297 7.13651C4.24295 7.26174 4.19389 7.38183 4.10657 7.47037C4.01925 7.55892 3.90083 7.60868 3.77735 7.6087Z" fill="black"/>
<path d="M19.0148 20.8724C19.0106 20.8517 19.001 20.8334 18.9873 20.8203C18.9737 20.8073 18.957 20.8003 18.9397 20.8006C18.5722 20.8054 16.6268 20.8305 15.802 20.8346C15.7893 20.8345 15.7769 20.8385 15.7658 20.8461C15.7547 20.8538 15.7454 20.8648 15.7387 20.8781C15.2085 21.92 14.2785 23.5412 13.6643 24.5966C13.6542 24.614 13.6492 24.6352 13.6501 24.6566C13.6511 24.6779 13.658 24.6983 13.6696 24.7142L14.5278 25.9035L14.5187 25.9205C14.5156 25.9271 14.5118 25.9337 14.5087 25.9403C14.4418 26.076 14.4052 26.2312 14.4029 26.3901C14.4006 26.549 14.4325 26.7058 14.4955 26.8443C14.5584 26.9829 14.6501 27.0982 14.761 27.1784C14.872 27.2585 14.9982 27.3007 15.1267 27.3006H18.7764C18.873 27.3005 18.9685 27.2766 19.0575 27.2302C19.1464 27.1838 19.2269 27.1158 19.2943 27.0304C19.3617 26.9449 19.4146 26.8436 19.4499 26.7325C19.4852 26.6214 19.5022 26.5027 19.4998 26.3834C19.4876 25.7684 19.4555 24.803 19.3761 23.7555C19.3103 22.7852 19.1895 21.8218 19.0148 20.8724Z" fill="black"/>
<path d="M36.704 18.2577C36.6991 18.2412 36.69 18.2268 36.6779 18.2165C36.6658 18.2062 36.6513 18.2004 36.6364 18.1999C36.6214 18.1994 36.6067 18.2042 36.5941 18.2137C36.5815 18.2232 36.5717 18.2369 36.566 18.253C36.4668 18.534 36.3556 18.809 36.2327 19.077C35.2051 21.3214 33.9587 23.4201 32.5184 25.3316C32.5061 25.3476 32.4995 25.3685 32.4998 25.39C32.5002 25.4114 32.5074 25.432 32.5202 25.4475L32.7692 25.7537C32.696 25.8546 32.6346 25.9664 32.5866 26.0862C32.5351 26.2185 32.5131 26.3638 32.5226 26.5087C32.5322 26.6536 32.573 26.7933 32.6413 26.9148C32.7021 27.0304 32.787 27.1263 32.888 27.1936C32.989 27.2609 33.103 27.2975 33.2193 27.2999H36.9997C37.093 27.2998 37.1854 27.278 37.2714 27.2358C37.3575 27.1935 37.4354 27.1316 37.5006 27.0538C37.5658 26.976 37.617 26.8837 37.6512 26.7825C37.6853 26.6812 37.7018 26.5731 37.6996 26.4643C37.6622 24.7139 37.4886 20.8347 36.704 18.2577Z" fill="black"/>
</svg>
