<svg width="21" height="37" viewBox="0 0 21 37" fill="none" xmlns="http://www.w3.org/2000/svg">
<path fill-rule="evenodd" clip-rule="evenodd" d="M7.69603 33.9609V34.9318L8.15279 35.5337C8.62869 36.1617 7.85466 36.0031 7.03023 36.0259L6.40596 36.0423L5.93333 36.4085C5.09538 37.0561 4.70019 37.3734 4.94187 36.2867L5.06458 35.7306L4.17297 35.7357C3.2711 35.6704 3.3924 35.5225 4.24529 35.1754L5.66412 34.5964L5.83815 33.8872C2.48446 31.4937 2.51759 25.8002 3.48152 22.1773L5.0016 16.4618C2.85632 18.88 2.92024 19.8598 1.92831 22.9266C1.6563 23.7683 1.01804 24.3851 0.827679 23.2028C0.437161 20.7878 0.950386 17.8106 2.25398 15.8385C3.83658 13.4431 6.93039 9.00418 7.01297 8.00479C7.13381 6.54536 6.61779 5.10787 6.61779 3.39743C6.61779 -1.13248 15.0207 -1.13248 15.0207 3.39743C15.0207 5.10787 14.5047 6.54536 14.6255 8.00479C14.7081 9.00418 17.8019 13.4431 19.3845 15.8385C20.6881 17.8106 21.2013 20.7878 20.8108 23.2028C20.6204 24.3851 19.9822 23.7683 19.7101 22.9266C18.7182 19.8598 18.7821 18.88 16.6369 16.4618L18.1569 22.1773C19.1209 25.8002 19.154 31.4937 15.8003 33.8872L15.9743 34.5964L17.3932 35.1754C18.2461 35.5225 18.3674 35.6704 17.4655 35.7357L16.5739 35.7306L16.6966 36.2867C16.9383 37.3734 16.5431 37.0561 15.7051 36.4085L15.2325 36.0423L14.6082 36.0259C13.7838 36.0031 13.0098 36.1617 13.4857 35.5337L13.9424 34.9318V33.9609H7.69603ZM13.0998 3.02418C13.4166 3.02418 13.6732 3.28079 13.6732 3.59712C13.6732 3.91439 13.4166 4.171 13.0998 4.171C12.783 4.171 12.5264 3.91439 12.5264 3.59712C12.5264 3.28079 12.783 3.02418 13.0998 3.02418ZM8.53865 3.02418C8.85498 3.02418 9.11159 3.28079 9.11159 3.59712C9.11159 3.91439 8.85498 4.171 8.53865 4.171C8.22138 4.171 7.96477 3.91439 7.96477 3.59712C7.96477 3.28079 8.22138 3.02418 8.53865 3.02418ZM10.8188 6.59109L12.0808 4.76681L11.6301 4.25172C11.6782 3.29525 12.7704 2.04438 13.6891 2.50349C14.6446 2.98032 14.7197 6.23276 12.1597 7.04039C14.8429 9.17354 16.2809 17.5116 16.2809 22.2776C16.2809 27.7737 13.8356 32.2295 10.8192 32.2295C7.80287 32.2295 5.35759 27.7737 5.35759 22.2776C5.35759 17.5176 6.82074 9.19547 9.50491 7.04879C6.83567 6.2309 6.99804 2.7727 8.04315 2.46663C8.94503 2.20208 9.93089 3.35544 9.97754 4.27924L9.55716 4.76681L10.8188 6.59109Z" fill="black"/>
</svg>
