<svg width="35" height="34" viewBox="0 0 35 34" fill="none" xmlns="http://www.w3.org/2000/svg">
<path d="M34.218 13.5285C34.1653 12.0491 32.4742 10.4638 31.7347 9.61852C30.9952 8.7732 29.5158 8.40345 28.1949 8.40345C26.874 8.40345 26.1872 9.51312 26.1872 9.51312C26.1872 9.51312 28.0895 9.03755 28.6178 9.19607C29.1461 9.35459 31.7879 11.1511 32.8448 13.1061C33.9014 15.0611 32.739 16.4346 32.2107 17.4385C31.6825 18.4423 29.4631 18.7067 27.6139 18.5482C25.7648 18.3896 24.7609 17.4385 24.3381 16.5932C23.9152 15.7478 23.9683 14.2157 23.9683 14.2157L19.213 17.7555C19.6359 18.495 21.3265 19.1291 22.5943 19.235C23.8625 19.3408 25.5531 20.0803 26.0287 20.3973C26.5043 20.7144 25.7116 21.1368 25.7116 21.1368C24.0737 20.1857 20.3754 19.0764 19.6354 19.0764C18.8959 19.0764 15.4084 14.8494 14.4577 13.4758C13.5065 12.1022 13.9294 10.9925 13.9294 10.0414C13.9294 9.09025 15.2503 6.34305 15.2503 6.34305C15.2503 6.34305 14.986 5.02216 13.1899 6.44888C11.7339 7.6053 10.2782 10.1158 9.60972 13.3887C10.2787 12.7635 10.8652 12.208 10.8652 12.208L9.48902 14.0525C9.39552 14.6165 9.32328 15.1992 9.27993 15.8006C9.2472 16.2583 9.23275 16.6858 9.23232 17.0891L10.3892 16.1703L9.237 17.4869C9.27483 19.028 9.5379 20.1738 9.87237 21.1033L10.7589 19.7101L10.2183 21.955C10.498 22.5746 10.7895 23.1029 11.0228 23.6197C11.4372 24.5368 12.4147 25.6694 13.2877 26.5811L14.6685 25.4157L13.9919 27.2955C14.371 27.6708 14.6791 27.9623 14.827 28.1106C15.3553 28.6389 14.6158 28.9033 14.6158 28.9033C12.1852 27.9525 9.17368 22.088 9.17368 22.088C9.17368 22.088 6.47918 22.2992 5.21099 20.3973C3.94279 18.4955 4.84124 16.1176 5.52804 14.744C6.21483 13.3704 5.52804 13.7402 5.52804 13.7402C5.52804 13.7402 4.25984 13.9514 3.89009 14.1099C3.52034 14.2684 1.301 16.9102 0.983951 17.2273C0.666902 17.5443 0.614203 18.0726 0.614203 18.0726L1.51222 17.28C1.51222 17.28 1.24788 18.0726 0.878126 18.7594C0.508378 19.4462 0.349854 20.8198 0.349854 20.8198L1.14248 19.7101V23.0914C0.878127 24.6766 1.14248 25.2049 1.14248 25.2049L1.67075 22.8802C1.67075 22.8802 1.67075 24.6766 1.67075 25.2576C1.67075 25.8386 3.04434 28.5335 4.36524 30.7524C5.68614 32.9713 14.2983 33.2357 16.0948 33.0245C17.87 32.8158 23.307 29.6147 26.0865 27.0915L23.545 27.4765L27.1388 25.9946C27.6237 25.4195 28.0797 24.7846 28.4971 24.1407L26.4507 24.9933C26.5255 24.9435 27.6649 24.2733 28.8507 23.578C30.1865 21.394 31.0471 19.2872 31.0471 19.2872C31.0471 19.2872 33.0548 18.1776 33.8474 17.0152C34.6404 15.8532 34.2707 15.0079 34.218 13.5285Z" fill="black"/>
<path d="M27.138 11.5204C27.4006 11.5204 27.6136 11.3075 27.6136 11.0448C27.6136 10.7822 27.4006 10.5692 27.138 10.5692C26.8753 10.5692 26.6624 10.7822 26.6624 11.0448C26.6624 11.3075 26.8753 11.5204 27.138 11.5204Z" fill="black"/>
<path d="M30.8362 15.2189C31.128 15.2189 31.3645 14.9823 31.3645 14.6905C31.3645 14.3988 31.128 14.1622 30.8362 14.1622C30.5444 14.1622 30.3079 14.3988 30.3079 14.6905C30.3079 14.9823 30.5444 15.2189 30.8362 15.2189Z" fill="black"/>
<path d="M27.1388 17.8612C27.8256 17.9139 30.4149 17.8085 31.1544 17.4383C31.894 17.0685 32.8452 15.9588 32.634 14.9549C32.4227 13.951 31.8413 11.8373 30.5203 10.9919C29.1993 10.1465 28.1954 9.72363 27.6671 9.72363C27.1388 9.72363 26.2403 9.67092 25.8178 10.1992C25.8178 10.1992 25.2363 10.569 24.9724 12.1544C24.708 13.7397 24.391 14.9549 24.8666 15.9588C25.3422 16.9631 26.4519 17.8085 27.1388 17.8612ZM27.5085 10.4109C28.3012 11.0977 28.2481 11.6261 27.9841 12.049C27.7198 12.4719 27.4027 12.8416 27.4027 12.8416L27.0329 12.9475L26.5573 12.6304L26.3461 12.9475L26.4519 14.1626C26.4519 14.1626 26.9802 15.3778 27.7202 15.4836C28.4598 15.5894 28.9885 15.5894 28.9885 15.3778C28.9885 15.1661 28.83 14.7436 29.1997 14.4266C29.5695 14.1095 30.732 13.5285 31.1022 13.8451C31.4719 14.1622 31.8948 15.853 31.5251 16.2227C31.1553 16.5925 31.208 16.5398 30.8909 16.2227C30.5738 15.9057 29.887 14.4788 29.887 14.4788C29.887 14.4788 29.3056 14.4788 29.3056 14.9545C29.3056 15.4301 29.6753 15.694 29.147 15.9057C28.6187 16.1169 27.0865 15.7998 26.8221 15.5359C26.5578 15.2715 26.188 14.7432 26.1353 14.2149C26.0826 13.6866 25.8709 13.1583 26.0294 12.8412C26.188 12.5241 26.3992 11.9427 26.6109 12.2071C26.8221 12.471 27.0338 12.8412 27.2977 12.5768C27.5621 12.3129 27.7206 11.89 27.7206 11.89C27.7206 11.89 26.6109 11.6788 25.8713 11.0446C25.8705 11.045 26.7159 9.72405 27.5085 10.4109ZM28.7768 14.5324L28.3012 15.008C28.3012 15.008 27.4558 14.8495 26.9802 14.1626C26.5046 13.4758 27.4558 13.1587 27.4558 13.1587C28.1954 13.5285 28.7768 14.5324 28.7768 14.5324Z" fill="black"/>
<path d="M22.0659 5.81405C21.5376 5.60282 17.9971 4.5989 16.8878 6.18383C16.8878 6.18383 16.4649 6.5536 17.1521 7.45211C17.1521 7.45211 17.6804 6.4482 18.4204 6.34237C18.5551 6.32324 18.7417 6.31474 18.9593 6.31219L19.0546 5.54969L19.245 6.31219C20.2268 6.32111 21.609 6.40697 22.119 6.28966C22.119 6.28966 21.7492 6.5536 20.3751 6.60673L20.4278 7.98042L19.9743 6.61948C19.3988 6.63648 18.95 6.65561 18.4876 6.83455L18.5785 8.56144L18.1331 7.00243C17.8092 7.18477 17.4615 7.45891 17.0463 7.87459C17.0463 7.87459 17.5219 9.24828 18.8429 9.19558C20.1639 9.14288 22.9644 6.92338 23.3873 5.65552C23.3869 5.65552 22.5942 6.02572 22.0659 5.81405Z" fill="black"/>
<path d="M18.5817 0.992867C18.0457 1.18455 14.7288 2.77841 14.9481 4.70081C14.9481 4.70081 14.8767 5.25803 15.9861 5.47564C15.9861 5.47564 15.7166 4.37354 16.2007 3.80443C16.2887 3.70072 16.423 3.57066 16.5841 3.42488L16.1505 2.79074L16.7983 3.23574C17.5395 2.59182 18.6319 1.74049 18.9362 1.31461C18.9362 1.31461 18.8342 1.75749 17.84 2.70743L18.79 3.70157L17.5485 2.98285C17.129 3.37685 16.8051 3.6884 16.5773 4.12915L17.7895 5.36258L16.423 4.49C16.3014 4.8415 16.2224 5.27673 16.1867 5.86327C16.1867 5.86327 17.4533 6.57732 18.4074 5.66223C19.3621 4.74757 19.9894 1.22961 19.4658 6.75215e-07C19.4662 -0.000849382 19.1177 0.801179 18.5817 0.992867Z" fill="black"/>
</svg>
