<svg width="95" height="104" viewBox="0 0 95 104" fill="none" xmlns="http://www.w3.org/2000/svg">
<g filter="url(#filter0_d_23769_157)">
<path d="M43.9738 5.26397C43.6244 4.93634 43.2749 4.69607 42.9472 4.52134C42.6196 4.36844 42.2483 4.28107 41.8333 4.28107C41.3528 4.28107 41.0033 4.39028 40.763 4.58686C40.5228 4.78344 40.3917 5.11108 40.3917 5.54792C40.3917 5.85371 40.5228 6.13766 40.7849 6.33424C41.047 6.55266 41.3528 6.74924 41.7459 6.94582C42.1391 7.1424 42.5541 7.33898 42.9909 7.5574C43.4278 7.77582 43.8428 8.01609 44.2359 8.32188C44.6291 8.62767 44.9349 8.97715 45.197 9.41399C45.4591 9.85083 45.5902 10.375 45.5902 10.9866C45.5902 11.9258 45.3281 12.734 44.8257 13.4111C44.3233 14.0882 43.537 14.5251 42.5322 14.7653V16.8185H40.632V14.8527C40.0641 14.7872 39.4525 14.6343 38.8191 14.3722C38.1856 14.1101 37.6396 13.7824 37.1809 13.3674L38.4478 11.4235C38.9501 11.7948 39.4307 12.0787 39.8675 12.2753C40.3262 12.4719 40.7849 12.5593 41.2436 12.5593C41.7896 12.5593 42.2046 12.4501 42.4449 12.2316C42.707 12.0132 42.838 11.6637 42.838 11.2051C42.838 10.8556 42.707 10.5716 42.4449 10.3314C42.1828 10.0911 41.877 9.87268 41.4838 9.65425C41.0907 9.43583 40.6757 9.21741 40.2388 8.99899C39.802 8.78057 39.387 8.51846 38.9938 8.21267C38.6007 7.90688 38.2949 7.5574 38.0328 7.1424C37.7706 6.7274 37.6396 6.24687 37.6396 5.65713C37.6396 4.69607 37.9017 3.88791 38.4259 3.25449C38.9501 2.62106 39.6928 2.20606 40.6101 2.03132V0H42.5104V1.98764C43.1438 2.07501 43.6899 2.27159 44.1704 2.55554C44.6509 2.83949 45.0659 3.18896 45.4591 3.60396L43.9738 5.26397Z" fill="#333B41"/>
<path fill-rule="evenodd" clip-rule="evenodd" d="M91 76.0004L87.4063 73.7889L79.3895 88.1638L83.2597 90.0989L91 76.0004Z" fill="#333B41"/>
<path fill-rule="evenodd" clip-rule="evenodd" d="M85.4707 73.2356C76.0717 62.4544 67.7785 65.2188 56.7209 72.4062C47.0454 78.7644 39.858 74.3413 32.6705 77.3822C31.0119 78.2115 28.5239 80.1466 30.7354 82.0817C31.8412 82.911 36.2642 83.7403 37.6464 83.4639C45.1103 81.8052 47.3219 85.1225 58.6559 82.911C55.3387 85.399 44.5575 83.7403 37.9229 84.5696C32.6705 85.6754 24.1008 81.5288 31.0119 76.8293C27.971 75.4471 25.2066 74.6178 21.8893 74.3413C18.572 71.8534 13.3197 68.8125 10.5552 67.7067C8.34372 66.3245 2.8149 66.8774 6.40863 70.4712C10.0024 73.7884 19.6778 81.2523 21.6129 82.3581C29.3532 87.0576 36.5407 90.3749 44.0046 94.5215C44.0046 94.5215 46.4926 95.9037 51.4685 93.9686C55.0622 92.31 71.0958 83.4639 74.966 84.8461C77.1775 85.6754 78.2832 86.2283 78.2832 86.2283L85.4707 73.2356Z" stroke="#333B41" stroke-width="1.5"/>
<path fill-rule="evenodd" clip-rule="evenodd" d="M38.7528 72.4061C39.3057 71.3003 39.8586 70.471 40.6879 70.1946C41.5172 69.9181 41.7937 70.471 42.3465 71.0239C42.8994 71.8532 43.1759 72.1297 44.0052 72.6825C44.2816 72.959 44.8345 72.959 45.1109 72.959L44.5581 72.6825C43.7287 72.1297 43.1759 71.5768 43.4523 70.471C43.4523 70.1946 43.1759 69.6417 43.7287 69.6417C44.2816 69.9181 45.1109 70.471 45.9403 70.471C45.9403 70.471 46.7696 70.7475 46.4931 70.471C46.4931 70.1946 45.9403 69.9181 45.6638 69.6417C44.0052 68.2595 44.0052 67.983 44.0052 66.048C44.2816 63.2836 43.1759 61.072 41.2408 59.1369C36.8177 54.7139 38.7528 48.6322 42.0701 42.8269C45.1109 37.5746 47.8753 36.7452 44.8345 30.3871C43.7287 27.6227 41.7937 24.8583 41.5172 23.1996C41.5172 22.6468 41.5172 22.9232 41.5172 23.1996C41.2408 24.8583 42.3465 27.3463 43.4523 29.8342C45.9403 35.363 45.3874 35.9159 41.7937 40.8918C37.9235 45.8678 35.1591 51.1202 36.8177 56.649C37.9235 60.5191 43.4523 64.3893 40.6879 66.8773C39.3057 67.983 37.3706 70.7475 37.0942 72.4061C36.8177 73.2354 36.8177 73.2354 36.5413 73.7883C36.2648 74.0647 36.5413 74.0647 36.8177 74.0647C38.1999 73.7883 38.1999 73.2354 38.7528 72.4061Z" fill="#333B41"/>
<path d="M57.068 46.529L57.9801 46.2684L58.0232 47.2161C58.171 50.4683 56.7785 54.3664 54.4893 57.4425C53.3023 59.0375 51.8405 60.4545 50.1798 61.4487C51.2729 61.074 52.4759 60.3838 53.693 59.1695C56.9277 55.6792 57.8196 51.2419 58.8558 45.5536C57.8903 45.6402 56.939 45.8564 55.9621 46.1392C55.3211 46.3247 54.6773 46.5364 54.0111 46.757C53.9707 46.7704 53.9303 46.7838 53.8898 46.7972C53.2724 47.0018 52.6358 47.2127 51.983 47.4089C46.8544 49.3021 44.0789 51.6595 43.0705 54.3645C42.8202 55.654 42.8551 56.8192 43.2935 57.696L43.3303 57.7696L43.3502 57.8495C43.5236 58.5427 44.2251 59.1847 45.1664 59.7019C46.2176 58.713 46.9504 57.8296 47.6711 56.9124C47.4958 57.0928 47.3319 57.265 47.177 57.428C47.0512 57.5602 46.9313 57.6863 46.8158 57.8057C46.6195 58.0085 46.4294 58.1985 46.2546 58.3497C46.0972 58.4858 45.8775 58.6584 45.6242 58.7429L45.4353 58.8059L45.24 58.7668C44.3452 58.5879 43.6727 58.0935 43.397 57.2664C43.1499 56.5252 43.2728 55.6546 43.5608 54.7804C44.0551 52.8473 45.5708 51.3363 47.8139 50.0545C50.0718 48.7643 53.1837 47.6388 57.068 46.529Z" stroke="#333B41" stroke-width="1.5"/>
<path d="M30.3596 28.3644C28.8834 27.8492 27.5975 27.4005 26.1588 27.1376C26.2081 27.3789 26.2565 27.6175 26.3044 27.8535C26.435 28.4963 26.5616 29.1198 26.6907 29.7246C26.6549 29.2771 26.6472 28.8382 26.6697 28.4124L26.7194 27.4666L27.6286 27.7318C30.9611 28.7038 33.6538 29.6904 35.6309 30.8048C37.3949 31.799 38.6825 32.9474 39.2883 34.3666C38.4485 32.1059 36.2374 30.1687 31.9065 28.8949L31.8936 28.8911L31.8809 28.8869C31.3455 28.7084 30.8424 28.5328 30.3596 28.3644ZM29.6847 37.3307C29.1001 36.544 28.585 35.6921 28.1531 34.8091C28.7589 36.2532 29.5581 37.5475 30.7134 38.7027L30.7232 38.7125L30.7326 38.7227C31.369 39.408 32.008 39.8996 32.6251 40.2467C31.5046 39.458 30.5136 38.4458 29.6847 37.3307ZM39.4641 37.5154C39.8985 36.6465 39.911 35.8128 39.5015 34.9459C39.7846 35.7324 39.7967 36.5125 39.5112 37.1787C39.205 37.8931 38.5926 38.3875 37.8288 38.5784L37.617 38.6314L37.4098 38.5623C37.3252 38.5341 37.2444 38.4969 37.1683 38.455C37.3424 38.6533 37.5256 38.8555 37.7217 39.0632L37.7415 39.0583C38.7005 38.8185 39.2238 38.4027 39.4073 37.6689L39.4273 37.589L39.4641 37.5154Z" stroke="#333B41" stroke-width="1.5"/>
<path d="M54.7817 28.6734C54.4562 29.062 54.1084 29.4323 53.7404 29.7771C53.9069 29.6374 54.0745 29.4844 54.2426 29.317C54.4332 29.1067 54.6125 28.8922 54.7817 28.6734ZM57.9904 19.4629C57.9931 19.4482 57.9958 19.4336 57.9985 19.4189C56.4669 19.7173 54.8898 20.1955 53.1138 20.8616L53.1138 20.8617L53.1027 20.8656C49.6254 22.1075 47.7148 23.5078 46.8639 25.3818C47.4433 24.1922 48.4856 23.2208 49.9543 22.3771C51.6626 21.3957 54.0171 20.5465 57.0761 19.7122L57.9904 19.4629ZM47.9138 29.1641C47.613 29.0638 47.3531 28.9104 47.14 28.7123C47.3282 29.0575 47.5877 29.3413 47.9505 29.5208C48.0559 29.4112 48.1572 29.3037 48.2551 29.1978C48.2211 29.2009 48.1863 29.2025 48.1509 29.2025H48.0292L47.9138 29.1641Z" stroke="#333B41" stroke-width="1.5"/>
</g>
<defs>
<filter id="filter0_d_23769_157" x="0.474854" y="0" width="94.5251" height="103.75" filterUnits="userSpaceOnUse" color-interpolation-filters="sRGB">
<feFlood flood-opacity="0" result="BackgroundImageFix"/>
<feColorMatrix in="SourceAlpha" type="matrix" values="0 0 0 0 0 0 0 0 0 0 0 0 0 0 0 0 0 0 127 0" result="hardAlpha"/>
<feOffset dy="4"/>
<feGaussianBlur stdDeviation="2"/>
<feComposite in2="hardAlpha" operator="out"/>
<feColorMatrix type="matrix" values="0 0 0 0 0 0 0 0 0 0 0 0 0 0 0 0 0 0 0.25 0"/>
<feBlend mode="normal" in2="BackgroundImageFix" result="effect1_dropShadow_23769_157"/>
<feBlend mode="normal" in="SourceGraphic" in2="effect1_dropShadow_23769_157" result="shape"/>
</filter>
</defs>
</svg>
