<svg width="0" height="0" class="hidden">
  <symbol fill="none" xmlns="http://www.w3.org/2000/svg" viewBox="0 0 54 54" id="plus">
    <rect width="54" height="54" rx="5" fill="white"></rect>
    <path d="M27 11C25.3432 11 24 12.3432 24 14V24H14C12.3432 24 11 25.3431 11 27C11 28.6568 12.3432 30 14 30H24V40C24 41.6569 25.3432 43 27 43C28.6569 43 30 41.6569 30 40V30H40C41.6568 30 43 28.6568 43 27C43 25.3431 41.6568 24 40 24H30V14C30 12.3432 28.6569 11 27 11Z" fill="#333B41"></path>
    <path fill-rule="evenodd" clip-rule="evenodd" d="M14.1309 30H39.823C41.5727 30 43 28.6423 43 27.0219C43 25.3577 41.5727 24 39.823 24H14.1309C12.4273 24 11 25.3577 11 27.0219C11 28.6423 12.4273 30 14.1309 30Z" fill="#333B41"></path>
  </symbol>
  <symbol fill="none" xmlns="http://www.w3.org/2000/svg" viewBox="0 0 32 6" id="minus">
    <path fill-rule="evenodd" clip-rule="evenodd" d="M3.13094 6H28.823C30.5727 6 32 4.6478 32 3.03389C32 1.37637 30.5727 0.0241699 28.823 0.0241699H3.13094C1.42734 0.0241699 0 1.37637 0 3.03389C0 4.6478 1.42734 6 3.13094 6Z" fill="#333B41"></path>
  </symbol>
  <symbol fill="none" xmlns="http://www.w3.org/2000/svg" viewBox="0 0 10 20" id="dollar">
    <path d="M8.07792 6.25974C7.66234 5.87013 7.24675 5.58442 6.85714 5.37662C6.46753 5.19481 6.02597 5.09091 5.53247 5.09091C4.96104 5.09091 4.54545 5.22078 4.25974 5.45455C3.97403 5.68831 3.81818 6.07792 3.81818 6.5974C3.81818 6.96104 3.97403 7.2987 4.28571 7.53247C4.5974 7.79221 4.96104 8.02597 5.42857 8.25974C5.8961 8.49351 6.38961 8.72727 6.90909 8.98701C7.42857 9.24675 7.92208 9.53247 8.38961 9.8961C8.85714 10.2597 9.22078 10.6753 9.53247 11.1948C9.84416 11.7143 10 12.3377 10 13.0649C10 14.1818 9.68831 15.1429 9.09091 15.9481C8.49351 16.7532 7.55844 17.2727 6.36364 17.5584V20H4.1039V17.6623C3.42857 17.5844 2.7013 17.4026 1.94805 17.0909C1.19481 16.7792 0.545455 16.3896 0 15.8961L1.50649 13.5844C2.1039 14.026 2.67532 14.3636 3.19481 14.5974C3.74026 14.8312 4.28571 14.9351 4.83117 14.9351C5.48052 14.9351 5.97403 14.8052 6.25974 14.5455C6.57143 14.2857 6.72727 13.8701 6.72727 13.3247C6.72727 12.9091 6.57143 12.5714 6.25974 12.2857C5.94805 12 5.58442 11.7403 5.11688 11.4805C4.64935 11.2208 4.15584 10.961 3.63636 10.7013C3.11688 10.4416 2.62338 10.1299 2.15584 9.76623C1.68831 9.4026 1.32468 8.98701 1.01299 8.49351C0.701299 8 0.545455 7.42857 0.545455 6.72727C0.545455 5.58442 0.857143 4.62338 1.48052 3.87013C2.1039 3.11688 2.98701 2.62338 4.07792 2.41558V0H6.33766V2.36364C7.09091 2.46753 7.74026 2.7013 8.31169 3.03896C8.88312 3.37662 9.37662 3.79221 9.84416 4.28571L8.07792 6.25974Z" fill="black"></path>
  </symbol>
  <symbol fill="white" xmlns="http://www.w3.org/2000/svg" viewBox="0 0 18 10" id="arrow-right">
    <path d="M12.998 0.892334L12.8935 0.791016L12.7891 0.892338L12.6489 1.02831L12.538 1.13598L12.6489 1.24364L16.2505 4.73748H1H0.85V4.88748V5.07981V5.22981H1H16.2501L12.6489 8.72365L12.538 8.83131L12.6489 8.93897L12.7891 9.07495L12.8935 9.17627L12.998 9.07495L17.1044 5.09111L17.2154 4.98345L17.1044 4.87578L12.998 0.892334Z" fill="white" stroke="white" stroke-width="0.3"></path>
  </symbol>
  <symbol fill="white" xmlns="http://www.w3.org/2000/svg" viewBox="0 0 18 10" id="arrow-left">
    <path d="M5.00202 9.10791L5.10646 9.20923L5.2109 9.10791L5.35106 8.97193L5.46204 8.86427L5.35106 8.75661L1.74949 5.26276L17 5.26276H17.15V5.11276V4.92044V4.77044H17L1.74986 4.77044L5.35107 1.27659L5.46204 1.16893L5.35106 1.06127L5.2109 0.925298L5.10646 0.823971L5.00201 0.925298L0.895554 4.90913L0.784573 5.0168L0.895559 5.12446L5.00202 9.10791Z" fill="white" stroke="white" stroke-width="0.3"></path>
  </symbol>
  <symbol fill="none" xmlns="http://www.w3.org/2000/svg" viewBox="0 0 37 37" id="user_icon">
    <g clip-path="url(#clip0_17137_3415)">
      <path d="M37 18.5C37 8.30445 28.6956 0 18.5 0C8.30445 0 0 8.30445 0 18.5C0 24.6256 3.00111 30.0933 7.64667 33.4644C7.72889 33.5467 7.81111 33.5878 7.89333 33.6289C10.8944 35.7667 14.5533 37 18.5 37C22.4467 37 26.1056 35.7667 29.1067 33.6289C29.1889 33.5878 29.2711 33.5056 29.3533 33.4644C33.9989 30.0933 37 24.6256 37 18.5ZM9.04445 32.4367V31.6556C9.04445 26.4344 13.2789 22.2 18.5 22.2C23.7211 22.2 27.9556 26.4344 27.9556 31.6556V32.4367C25.2422 34.2867 21.9944 35.3556 18.5 35.3556C15.0056 35.3556 11.7578 34.2867 9.04445 32.4367ZM13.5667 15.6222C13.5667 12.9089 15.7867 10.6889 18.5 10.6889C21.2133 10.6889 23.4333 12.9089 23.4333 15.6222C23.4333 18.3356 21.2133 20.5556 18.5 20.5556C15.7867 20.5556 13.5667 18.3356 13.5667 15.6222ZM29.6 31.1622C29.3944 26.4756 26.3111 22.57 22.0767 21.1311C23.8856 19.98 25.0778 17.9244 25.0778 15.6222C25.0778 12.0044 22.1178 9.04445 18.5 9.04445C14.8822 9.04445 11.9222 12.0044 11.9222 15.6222C11.9222 17.9244 13.1144 19.98 14.9233 21.1311C10.6889 22.57 7.60556 26.5167 7.4 31.1622C3.86444 28.0789 1.64444 23.5567 1.64444 18.5C1.64444 9.20889 9.20889 1.64444 18.5 1.64444C27.7911 1.64444 35.3556 9.20889 35.3556 18.5C35.3556 23.5567 33.1356 28.0789 29.6 31.1622Z" fill="black"></path>
    </g>
    <defs>
      <clipPath id="clip0_17137_3415">
        <rect width="37" height="37" fill="white"></rect>
      </clipPath>
    </defs>
  </symbol>
  <symbol fill="none" xmlns="http://www.w3.org/2000/svg" viewBox="0 0 17 7" id="arrow-bottom">
    <path d="M0.0943604 0.735798C0.0943604 0.553477 0.183372 0.358132 0.3792 0.214879C0.770851 -0.0716264 1.39394 -0.0716264 1.78559 0.214879L8.5505 5.15059L15.2976 0.214879C15.6893 -0.0716264 16.3123 -0.0716264 16.704 0.214879C17.0956 0.501385 17.0956 0.957189 16.7218 1.24369L9.26259 6.70032C9.06677 6.84358 8.81753 6.90869 8.5505 6.90869C8.28346 6.90869 8.03423 6.83055 7.8384 6.70032L0.3792 1.24369C0.183372 1.10044 0.0943604 0.91812 0.0943604 0.735798Z" fill="black"></path>
  </symbol>
</svg>